<svg xmlns="http://www.w3.org/2000/svg" xmlns:xlink="http://www.w3.org/1999/xlink" viewBox="0 0 569.191 592.545"><defs><style>.cls-1,.cls-15,.cls-4{fill:#2b2b2b;}.cls-1{opacity:0.6;}.cls-2{fill:#efefef;}.cls-3{fill:url(#linear-gradient);}.cls-4{opacity:0.11;}.cls-5{fill:#fff;}.cls-10,.cls-13,.cls-14,.cls-6,.cls-7,.cls-9{opacity:0.7;}.cls-6{fill:url(#linear-gradient-2);}.cls-7{fill:url(#linear-gradient-3);}.cls-8{fill:#fcffff;}.cls-9{fill:url(#linear-gradient-4);}.cls-10{fill:url(#linear-gradient-5);}.cls-11{fill:url(#linear-gradient-6);}.cls-12{fill:#fffeff;}.cls-13{fill:url(#linear-gradient-7);}.cls-14{fill:url(#linear-gradient-8);}.cls-16{fill:url(#linear-gradient-9);}.cls-17{fill:url(#linear-gradient-10);}.cls-18{fill:url(#linear-gradient-11);}.cls-19{fill:url(#linear-gradient-12);}.cls-20{fill:url(#linear-gradient-13);}.cls-21{fill:url(#linear-gradient-14);}.cls-22{fill:url(#linear-gradient-15);}.cls-23{fill:url(#linear-gradient-16);}.cls-24{fill:#e59b95;}.cls-25{fill:#ef7726;}.cls-26{fill:#1e1e1e;}.cls-27{fill:#dd9390;}</style><linearGradient id="linear-gradient" x1="320" y1="210.862" x2="720.574" y2="210.862" gradientUnits="userSpaceOnUse"><stop offset="0" stop-color="#75a0b9"></stop><stop offset="1" stop-color="#8cc6b7"></stop></linearGradient><linearGradient id="linear-gradient-2" x1="377.949" y1="359.197" x2="557" y2="359.197" xlink:href="#linear-gradient"></linearGradient><linearGradient id="linear-gradient-3" x1="258.531" y1="195.138" x2="377.764" y2="195.138" xlink:href="#linear-gradient"></linearGradient><linearGradient id="linear-gradient-4" x1="403.139" y1="519.477" x2="479.521" y2="519.477" xlink:href="#linear-gradient"></linearGradient><linearGradient id="linear-gradient-5" x1="490.139" y1="565.477" x2="566.521" y2="565.477" xlink:href="#linear-gradient"></linearGradient><linearGradient id="linear-gradient-6" x1="519.816" y1="292.834" x2="697.944" y2="292.834" xlink:href="#linear-gradient"></linearGradient><linearGradient id="linear-gradient-7" x1="157.777" y1="375.464" x2="394.529" y2="375.464" xlink:href="#linear-gradient"></linearGradient><linearGradient id="linear-gradient-8" x1="571.701" y1="477.926" x2="668.016" y2="477.926" xlink:href="#linear-gradient"></linearGradient><linearGradient id="linear-gradient-9" x1="567.341" y1="149.674" x2="603.097" y2="149.674" xlink:href="#linear-gradient"></linearGradient><linearGradient id="linear-gradient-10" x1="0.223" y1="390.102" x2="47.223" y2="390.102" xlink:href="#linear-gradient"></linearGradient><linearGradient id="linear-gradient-11" x1="180.854" y1="207.081" x2="200.825" y2="207.081" xlink:href="#linear-gradient"></linearGradient><linearGradient id="linear-gradient-12" x1="184.923" y1="185.25" x2="204.577" y2="185.25" xlink:href="#linear-gradient"></linearGradient><linearGradient id="linear-gradient-13" x1="167.5" y1="188.013" x2="185" y2="188.013" xlink:href="#linear-gradient"></linearGradient><linearGradient id="linear-gradient-14" x1="203.5" y1="186.013" x2="221" y2="186.013" xlink:href="#linear-gradient"></linearGradient><linearGradient id="linear-gradient-15" x1="197.5" y1="225.013" x2="215" y2="225.013" xlink:href="#linear-gradient"></linearGradient><linearGradient id="linear-gradient-16" x1="33.223" y1="359.602" x2="41.223" y2="359.602" xlink:href="#linear-gradient"></linearGradient></defs><g id="Layer_2" data-name="Layer 2"><path class="cls-1" d="M266.263,434.361h0a9.664,9.664,0,0,0,1.622,15.744L670.606,674.719a9.665,9.665,0,0,0,11.1-1.194l2.142-1.889a9.665,9.665,0,0,0-1.736-15.715L277.251,433.2A9.665,9.665,0,0,0,266.263,434.361Z" transform="translate(-157.777 -83.398)"></path><path class="cls-2" d="M276,431,326,91s4-13,18-5S715,294,715,294s16,10,11,28L678,655s-2,15-20,4L294,457S273,447,276,431Z" transform="translate(-157.777 -83.398)"></path><path class="cls-3" d="M320,111,718,334l1.63-8.693c2.355-12.56,1.052-19.777-12.63-27.307-.4-.221-2.55-1.85-3-2L337,90s-10.924-6.722-15.055,2.941a14.239,14.239,0,0,0-1.052,4.668Z" transform="translate(-157.777 -83.398)"></path><path class="cls-4" d="M275,131s.66-12.543,10.026-16.174a13.3,13.3,0,0,1,11.1.87L376,159s13,6,9,30l-9,67s-3,17-21,11l-78.246-42.59C276.356,224.194,264,218,267,195Z" transform="translate(-157.777 -83.398)"></path><path class="cls-5" d="M271,133s.66-12.543,10.026-16.174a13.3,13.3,0,0,1,11.1.87L372,161s13,6,9,30l-9,67s-3,17-21,11l-78.246-42.59C272.356,226.194,260,220,263,197Z" transform="translate(-157.777 -83.398)"></path><path class="cls-5" d="M384,377l17-144s3-18,25-12l134,77s5,3,3,14L545,471s-4,27-31,10L397,408S383,403,384,377Z" transform="translate(-157.777 -83.398)"></path><path class="cls-4" d="M390,369l17-144s3-18,25-12l134,77s5,3,3,14L551,463s-4,27-31,10L403,400S389,395,390,369Z" transform="translate(-157.777 -83.398)"></path><path class="cls-6" d="M378,383l17-144s3-18,25-12l125,72s12,6,12,19L539,477s-4,27-31,10L391,414S377,409,378,383Z" transform="translate(-157.777 -83.398)"></path><path class="cls-7" d="M267,135s.66-12.543,10.026-16.174a13.3,13.3,0,0,1,11.1.87L368,163s13,6,9,30l-9,67s-3,17-21,11l-78.246-42.59C268.356,228.194,256,222,259,199Z" transform="translate(-157.777 -83.398)"></path><path class="cls-8" d="M408.72,526.071l7.252-61.429s1.28-7.679,10.665-5.12l55.1,31.661a6.813,6.813,0,0,1,3.371,7.02c-.008.046-.017.093-.025.14L477.4,566.172s-1.706,11.518-13.224,4.265L414.266,539.3S408.294,537.163,408.72,526.071Z" transform="translate(-157.777 -83.398)"></path><path class="cls-9" d="M403.161,529.631l7.252-61.43s1.279-7.679,10.665-5.119L474.4,493.8s5.119,2.559,5.119,8.1l-7.678,67.829s-1.707,11.518-13.225,4.266l-49.912-31.141S402.734,540.723,403.161,529.631Z" transform="translate(-157.777 -83.398)"></path><path class="cls-8" d="M495.72,572.071l7.252-61.429s1.28-7.679,10.665-5.12l55.1,31.661a6.813,6.813,0,0,1,3.371,7.02c-.008.046-.017.093-.025.14L564.4,612.172s-1.706,11.518-13.224,4.265L501.266,585.3S495.294,583.163,495.72,572.071Z" transform="translate(-157.777 -83.398)"></path><path class="cls-10" d="M490.161,575.631l7.252-61.43s1.279-7.679,10.665-5.119L561.4,539.8s5.119,2.559,5.119,8.105l-7.678,67.829s-1.707,11.518-13.225,4.266l-49.912-31.141S489.734,586.723,490.161,575.631Z" transform="translate(-157.777 -83.398)"></path><path class="cls-4" d="M532,303l15-109s2-14,18-7,138,79,138,79,10,7,6,27c-4.354,21.772-14,101-14,101s-2,17-21,8L545,327S530,320,532,303Z" transform="translate(-157.777 -83.398)"></path><path class="cls-5" d="M527,300l15-109s2-14,18-7,138,79,138,79,10,7,6,27c-4.354,21.772-14,101-14,101s-2,17-21,8L540,324S525,317,527,300Z" transform="translate(-157.777 -83.398)"></path><path class="cls-11" d="M520,301l15-109s2-14,18-7,138,79,138,79,10,6,6,27c-4.155,21.811-14,101-14,101s-2,17-21,8L533,325S518,318,520,301Z" transform="translate(-157.777 -83.398)"></path><path class="cls-5" d="M571.841,290.421l6.589-47.876s.878-6.149,7.906-3.075,60.614,34.7,60.614,34.7,4.392,2.636,2.635,11.86c-1.825,9.58-6.149,44.362-6.149,44.362s-.879,7.467-9.224,3.514l-56.661-32.943S570.963,297.888,571.841,290.421Z" transform="translate(-157.777 -83.398)"></path><path class="cls-12" d="M174,274l-8,65s-3,23,13,33L367,475s23,11,28-15l7-59s4-17-10-25L195,267S177,261,174,274Z" transform="translate(-157.777 -83.398)"></path><path class="cls-13" d="M166,278l-8,65s-3,23,13,33L359,479s23,11,28-15l7-59s4-17-10-25L187,271S169,265,166,278Z" transform="translate(-157.777 -83.398)"></path><path class="cls-5" d="M584.78,419.734a10.947,10.947,0,0,0-3.038,6.589L576,478s-3,16,10,24,64,33,64,33,14,4,16-15,6-46,6-46,1-18-13-24l-58-32S590.885,413.665,584.78,419.734Z" transform="translate(-157.777 -83.398)"></path><path class="cls-14" d="M580.78,421.734a10.947,10.947,0,0,0-3.038,6.589L572,480s-3,16,10,24,64,33,64,33,14,4,16-15,6-46,6-46,1-18-13-24l-58-32S586.885,415.665,580.78,421.734Z" transform="translate(-157.777 -83.398)"></path><polygon class="cls-15" points="454.54 371.809 453.223 378.602 436.613 377.785 451.126 395.712 451.126 405.102 427.223 377.785 427.223 370.102 454.54 371.809"></polygon><path class="cls-15" d="M627.87,457.955l.174.174a3.1,3.1,0,0,1,.756,3.157l-10.795,33.105a3.1,3.1,0,0,1-4.937,1.422h0a3.1,3.1,0,0,1-.969-3.327l10.621-33.28A3.1,3.1,0,0,1,627.87,457.955Z" transform="translate(-157.777 -83.398)"></path><polygon class="cls-15" points="465.223 415.602 467.223 409.602 487.833 410.767 472.223 391.602 473.321 383.45 497.223 410.767 495.223 418.602 465.223 415.602"></polygon><ellipse class="cls-5" cx="181.223" cy="23.102" rx="5" ry="5.357"></ellipse><ellipse class="cls-5" cx="197.223" cy="32.102" rx="5" ry="5.357"></ellipse><ellipse class="cls-5" cx="213.223" cy="41.102" rx="5" ry="5.357"></ellipse><path class="cls-5" d="M189.494,306.236l8.248-.2a2.744,2.744,0,0,1,.606,1.558c.183,1.608.418,3.206.6,4.815a2.213,2.213,0,0,0,1,1.883,8.818,8.818,0,0,1,1.632,1.276.927.927,0,0,0,1.279.172c1.151-.712,2.328-1.347,3.482-2.052.749-.458,1.283-.186,1.707.793,1.141,2.638,2.309,5.255,3.446,7.9a1.973,1.973,0,0,1-.315,2.54c-.966,1.126-1.937,2.245-2.925,3.334a1.693,1.693,0,0,0-.435,1.553,11.747,11.747,0,0,1,.078,3.049,1.734,1.734,0,0,0,.488,1.546c1.034,1.05,2.041,2.154,3.07,3.216a2.126,2.126,0,0,1,.442,2.458q-1.563,4.065-3.1,8.148c-.38,1.007-.918,1.257-1.679.836-1.185-.654-2.382-1.266-3.576-1.889-.3-.157-.587-.3-.925-.05-2.637,1.966-2.724,2.134-3,6.329-.042.638-.1,1.275-.133,1.915a3.554,3.554,0,0,1-.487,1.751l-8.248.2a3.149,3.149,0,0,1-.6-1.695c-.122-1.161-.355-2.308-.417-3.471-.093-1.757-.564-3.013-1.841-3.562a3.27,3.27,0,0,1-.977-.81.884.884,0,0,0-1.277-.153c-1.15.714-2.32,1.368-3.477,2.062-.7.421-1.244.213-1.655-.735q-1.757-4.05-3.532-8.085a2.012,2.012,0,0,1,.31-2.369c.756-.834,1.457-1.773,2.247-2.537a3.384,3.384,0,0,0,1.082-3.569,3.872,3.872,0,0,1,0-1.35,2.532,2.532,0,0,0-.82-2.461c-.974-.9-1.884-1.936-2.827-2.9a2.006,2.006,0,0,1-.418-2.349c1.059-2.738,2.1-5.492,3.138-8.244.364-.96.887-1.207,1.616-.805.983.542,2,.957,2.959,1.585a1.549,1.549,0,0,0,2.409-.429,3.979,3.979,0,0,1,1.166-.976,1.892,1.892,0,0,0,.793-1.665c.109-1.614.259-3.222.36-4.838A3.158,3.158,0,0,1,189.494,306.236Zm4.927,34.192c3.474-.094,6.143-4.02,6.017-8.85-.131-4.966-2.945-8.744-6.449-8.656-3.467.087-6.193,4.027-6.082,8.792C188.022,336.686,190.89,340.524,194.421,340.428Z" transform="translate(-157.777 -83.398)"></path><path class="cls-16" d="M580.494,124.236l8.248-.2a2.744,2.744,0,0,1,.606,1.558c.183,1.608.418,3.206.6,4.815a2.213,2.213,0,0,0,1,1.883,8.818,8.818,0,0,1,1.632,1.276.927.927,0,0,0,1.279.172c1.151-.712,2.328-1.347,3.482-2.052.749-.458,1.283-.186,1.707.793,1.141,2.638,2.309,5.255,3.446,7.9a1.973,1.973,0,0,1-.315,2.54c-.966,1.126-1.937,2.245-2.925,3.334a1.693,1.693,0,0,0-.435,1.553,11.747,11.747,0,0,1,.078,3.049,1.734,1.734,0,0,0,.488,1.546c1.034,1.05,2.041,2.154,3.07,3.216a2.126,2.126,0,0,1,.442,2.458q-1.563,4.065-3.1,8.148c-.38,1.007-.918,1.257-1.679.836-1.185-.654-2.382-1.266-3.576-1.889-.3-.157-.587-.3-.925-.05-2.637,1.966-2.724,2.134-3,6.329-.042.638-.1,1.275-.133,1.915a3.554,3.554,0,0,1-.487,1.751l-8.248.2a3.149,3.149,0,0,1-.6-1.695c-.122-1.161-.355-2.308-.417-3.471-.093-1.757-.564-3.013-1.841-3.562a3.27,3.27,0,0,1-.977-.81.884.884,0,0,0-1.277-.153c-1.15.714-2.32,1.368-3.477,2.062-.7.421-1.244.213-1.655-.735q-1.756-4.05-3.532-8.085a2.012,2.012,0,0,1,.31-2.369c.756-.834,1.457-1.773,2.247-2.537a3.384,3.384,0,0,0,1.082-3.569,3.872,3.872,0,0,1,0-1.35,2.532,2.532,0,0,0-.82-2.461c-.974-.9-1.884-1.936-2.827-2.9a2.006,2.006,0,0,1-.418-2.349c1.059-2.738,2.1-5.492,3.138-8.244.364-.96.887-1.207,1.616-.805.983.542,2,.957,2.959,1.585a1.549,1.549,0,0,0,2.409-.429,3.979,3.979,0,0,1,1.166-.976,1.892,1.892,0,0,0,.793-1.665c.109-1.614.259-3.222.36-4.838A3.158,3.158,0,0,1,580.494,124.236Zm4.927,34.192c3.474-.094,6.143-4.02,6.017-8.85-.131-4.966-2.945-8.744-6.449-8.656-3.467.087-6.193,4.027-6.082,8.792C579.022,154.686,581.89,158.524,585.421,158.428Z" transform="translate(-157.777 -83.398)"></path><polygon class="cls-5" points="217.74 332.638 72.328 253.196 72.643 245.298 218.055 324.74 217.74 332.638"></polygon><polygon class="cls-5" points="505.561 293.307 384.56 227.202 384.822 220.629 505.823 286.735 505.561 293.307"></polygon><path class="cls-5" d="M523.345,341.7l-97.525-53.28a7.205,7.205,0,0,1-3.7-7.2h0a7.2,7.2,0,0,1,10.6-5.442l97.525,53.28a7.2,7.2,0,0,1,3.7,7.2h0A7.2,7.2,0,0,1,523.345,341.7Z" transform="translate(-157.777 -83.398)"></path><polygon class="cls-5" points="205.654 122.236 120.307 75.61 122.313 59.124 207.659 105.751 205.654 122.236"></polygon><polygon class="cls-5" points="201.654 146.236 116.307 99.61 118.313 83.124 203.659 129.751 201.654 146.236"></polygon><polygon class="cls-5" points="198.654 172.236 113.307 125.61 115.313 109.124 200.659 155.751 198.654 172.236"></polygon><path class="cls-5" d="M519.345,366.7l-97.525-53.28a7.205,7.205,0,0,1-3.7-7.2h0a7.2,7.2,0,0,1,10.6-5.442l97.525,53.28a7.2,7.2,0,0,1,3.7,7.2h0A7.2,7.2,0,0,1,519.345,366.7Z" transform="translate(-157.777 -83.398)"></path><path class="cls-5" d="M512.345,393.7l-97.525-53.28a7.205,7.205,0,0,1-3.7-7.2h0a7.2,7.2,0,0,1,10.6-5.442l97.525,53.28a7.2,7.2,0,0,1,3.7,7.2h0A7.2,7.2,0,0,1,512.345,393.7Z" transform="translate(-157.777 -83.398)"></path><path class="cls-5" d="M508.345,418.7l-97.525-53.28a7.205,7.205,0,0,1-3.7-7.2h0a7.2,7.2,0,0,1,10.6-5.442l97.525,53.28a7.2,7.2,0,0,1,3.7,7.2h0A7.2,7.2,0,0,1,508.345,418.7Z" transform="translate(-157.777 -83.398)"></path><polygon class="cls-5" points="217.74 350.638 72.328 271.196 72.643 263.298 218.055 342.74 217.74 350.638"></polygon><polygon class="cls-5" points="216.74 368.638 71.328 289.196 71.643 281.298 217.055 360.74 216.74 368.638"></polygon><polygon class="cls-12" points="253.223 447.687 277.121 413.433 281.901 449.28 293.85 437.331 300.223 474.772 253.223 447.687"></polygon><polygon class="cls-17" points="0.223 393.687 24.121 359.433 28.901 395.28 40.85 383.331 47.223 420.772 0.223 393.687"></polygon><polygon class="cls-12" points="344.223 494.687 368.121 460.433 372.901 496.28 384.85 484.331 391.223 521.772 344.223 494.687"></polygon><path class="cls-18" d="M202.615,217.844l-16.079-21.492-2.291-3.062a3.093,3.093,0,0,0-4.1-1.076c-1.277.747-2.053,2.8-1.077,4.1l16.08,21.492,2.29,3.061a3.094,3.094,0,0,0,4.1,1.076c1.276-.746,2.052-2.8,1.076-4.1Z" transform="translate(-157.777 -83.398)"></path><path class="cls-19" d="M204.5,181.5l-17.046,1.311L185,183a3,3,0,0,0,0,6l17.046-1.311,2.454-.189a3,3,0,0,0,0-6Z" transform="translate(-157.777 -83.398)"></path><path class="cls-20" d="M181,188c0,.241-.008.481-.023.722-.009.145-.072.771,0,.188a9.708,9.708,0,0,1-.215,1.084,11.688,11.688,0,0,1-.406,1.281c.043-.113.245-.5-.01.006-.115.231-.23.46-.359.684-.085.146-.173.291-.265.432,0,0-.475.664-.2.306s-.236.262-.238.264c-.109.119-.221.236-.337.349-.151.147-.835.656-.3.3-.348.235-.768.409-1.1.652s.63-.166-.032,0c-.149.038-.294.093-.443.132s-.3.064-.452.1c.665-.161.207-.011-.013-.011-.358,0-.7,0-1.06-.028.767.059-.306-.129-.558-.193-.662-.169.289.232-.032,0-.149-.108-.352-.177-.513-.27-.207-.121-.84-.6-.358-.2a8.966,8.966,0,0,1-.872-.827c-.111-.121-.213-.247-.321-.371.437.5-.059-.108-.118-.2a10.041,10.041,0,0,1-.567-1c-.068-.138-.273-.671-.067-.122-.062-.166-.124-.333-.18-.5a11.243,11.243,0,0,1-.318-1.181c-.048-.226-.093-.454-.123-.683.072.544,0-.172,0-.331q-.029-.579,0-1.158c.01-.19.027-.379.042-.569-.047.575,0-.024.031-.174a10.893,10.893,0,0,1,.291-1.195c.052-.171.116-.338.168-.509.2-.66-.187.3.1-.255.2-.38.39-.756.624-1.116.092-.141.191-.275.285-.414-.318.471-.1.127-.009.027.281-.3.56-.575.853-.857.119-.114.439-.276-.049.028.2-.124.385-.263.589-.382.134-.078.275-.143.409-.221.584-.335-.354.023.028-.013a5.81,5.81,0,0,0,1-.271c-.546.171-.329.022-.1.017.2,0,.393-.018.59-.015s.392.018.587.037c-.509-.049-.215-.025.115.061.15.039.294.091.443.132.687.192-.491-.292.136.052.344.189.666.4,1,.6-.488-.3-.168-.142-.049-.028.174.167.356.323.524.5.138.142.26.323.408.454q.2.246-.088-.121c.075.1.146.2.215.309.245.4.475.8.694,1.221.06.113.189.519.01.006.088.253.183.5.261.758a13.475,13.475,0,0,1,.316,1.331c.164.836.024-.331.018.18,0,.332.04.672.044,1.006a3,3,0,0,0,6,0c-.057-4.638-2.312-9.618-6.744-11.588-4.712-2.1-9.684-.173-12.524,3.953a14.24,14.24,0,0,0-.707,14.06,10.39,10.39,0,0,0,11.416,5.815c5.486-1.22,8.5-7.006,8.559-12.24a3,3,0,0,0-6,0Z" transform="translate(-157.777 -83.398)"></path><path class="cls-21" d="M217,186c0,.241-.008.481-.023.722-.009.145-.072.771,0,.188a9.708,9.708,0,0,1-.215,1.084,11.688,11.688,0,0,1-.406,1.281c.043-.113.245-.5-.01.006-.115.231-.23.46-.359.684-.085.146-.173.291-.265.432,0,0-.475.664-.2.306s-.236.262-.238.264c-.109.119-.221.236-.337.349-.151.147-.835.656-.3.3-.348.235-.768.409-1.1.652s.63-.166-.032,0c-.149.038-.294.093-.443.132s-.3.064-.452.1c.665-.161.207-.011-.013-.011-.358,0-.7,0-1.06-.028.767.059-.306-.129-.558-.193-.662-.169.289.232-.032,0-.149-.108-.352-.177-.513-.27-.207-.121-.84-.6-.358-.2a8.966,8.966,0,0,1-.872-.827c-.111-.121-.213-.247-.321-.371.437.5-.059-.108-.118-.2a10.041,10.041,0,0,1-.567-1c-.068-.138-.273-.671-.067-.122-.062-.166-.124-.333-.18-.5a11.243,11.243,0,0,1-.318-1.181c-.048-.226-.093-.454-.123-.683.072.544,0-.172,0-.331q-.029-.579,0-1.158c.01-.19.027-.379.042-.569-.047.575,0-.024.031-.174a10.893,10.893,0,0,1,.291-1.195c.052-.171.116-.338.168-.509.2-.66-.187.3.1-.255.2-.38.39-.756.624-1.116.092-.141.191-.275.285-.414-.318.471-.1.127-.009.027.281-.3.56-.575.853-.857.119-.114.439-.276-.049.028.2-.124.385-.263.589-.382.134-.078.275-.143.409-.221.584-.335-.354.023.028-.013a5.81,5.81,0,0,0,1-.271c-.546.171-.329.022-.1.017.2,0,.393-.018.59-.015s.392.018.587.037c-.509-.049-.215-.025.115.061.15.039.294.091.443.132.687.192-.491-.292.136.052.344.189.666.4,1,.6-.488-.3-.168-.142-.049-.028.174.167.356.323.524.5.138.142.26.323.408.454q.2.246-.088-.121c.075.1.146.2.215.309.245.4.475.8.694,1.221.06.113.189.519.01.006.088.253.183.5.261.758a13.475,13.475,0,0,1,.316,1.331c.164.836.024-.331.018.18,0,.332.04.672.044,1.006a3,3,0,0,0,6,0c-.057-4.638-2.312-9.618-6.744-11.588-4.712-2.1-9.684-.173-12.524,3.953a14.24,14.24,0,0,0-.707,14.06,10.39,10.39,0,0,0,11.416,5.815c5.486-1.22,8.5-7.006,8.559-12.24a3,3,0,0,0-6,0Z" transform="translate(-157.777 -83.398)"></path><path class="cls-22" d="M211,225c0,.241-.008.481-.023.722-.009.145-.072.771,0,.188a9.708,9.708,0,0,1-.215,1.084,11.688,11.688,0,0,1-.406,1.281c.043-.113.245-.5-.01.006-.115.231-.23.46-.359.684-.085.146-.173.291-.265.432,0,0-.475.664-.2.306s-.236.262-.238.264c-.109.119-.221.236-.337.349-.151.147-.835.656-.3.3-.348.235-.768.409-1.1.652s.63-.166-.032,0c-.149.038-.294.093-.443.132s-.3.064-.452.1c.665-.161.207-.011-.013-.011-.358,0-.7,0-1.06-.028.767.059-.306-.129-.558-.193-.662-.169.289.232-.032,0-.149-.108-.352-.177-.513-.27-.207-.121-.84-.6-.358-.2a8.966,8.966,0,0,1-.872-.827c-.111-.121-.213-.247-.321-.371.437.5-.059-.108-.118-.2a10.041,10.041,0,0,1-.567-1c-.068-.138-.273-.671-.067-.122-.062-.166-.124-.333-.18-.5a11.243,11.243,0,0,1-.318-1.181c-.048-.226-.093-.454-.123-.683.072.544,0-.172,0-.331q-.029-.579,0-1.158c.01-.19.027-.379.042-.569-.047.575,0-.024.031-.174a10.893,10.893,0,0,1,.291-1.195c.052-.171.116-.338.168-.509.2-.66-.187.3.1-.255.2-.38.39-.756.624-1.116.092-.141.191-.275.285-.414-.318.471-.1.127-.009.027.281-.3.56-.575.853-.857.119-.114.439-.276-.049.028.2-.124.385-.263.589-.382.134-.078.275-.143.409-.221.584-.335-.354.023.028-.013a5.81,5.81,0,0,0,1-.271c-.546.171-.329.022-.1.017.2,0,.393-.018.59-.015s.392.018.587.037c-.509-.049-.215-.025.115.061.15.039.294.091.443.132.687.192-.491-.292.136.052.344.189.666.4,1,.6-.488-.3-.168-.142-.049-.028.174.167.356.323.524.5.138.142.26.323.408.454q.2.246-.088-.121c.075.1.146.2.215.309.245.4.475.8.694,1.221.06.113.189.519.01.006.088.253.183.5.261.758a13.475,13.475,0,0,1,.316,1.331c.164.836.024-.331.018.18,0,.332.04.672.044,1.006a3,3,0,0,0,6,0c-.057-4.638-2.312-9.618-6.744-11.588-4.712-2.1-9.684-.173-12.524,3.953a14.24,14.24,0,0,0-.707,14.06,10.39,10.39,0,0,0,11.416,5.815c5.486-1.22,8.5-7.006,8.559-12.24a3,3,0,0,0-6,0Z" transform="translate(-157.777 -83.398)"></path><ellipse class="cls-23" cx="37.223" cy="359.602" rx="4" ry="5"></ellipse><ellipse class="cls-5" cx="289.223" cy="418.602" rx="4" ry="5"></ellipse><ellipse class="cls-5" cx="379.223" cy="468.602" rx="4" ry="5"></ellipse></g><g id="Layer_3" data-name="Layer 3"><path class="cls-24" d="M422,346s0-12,2-14,9-3,9-3,3-6,5-5-5,10-4,12,3-6,5-5-3,16-10,18S422,346,422,346Z" transform="translate(-157.777 -83.398)"></path><path class="cls-24" d="M468,405s0-16,2-17,2,7,3,7,4-3,4-8,2.106-4.789,3-3c1,2,4,8,3,13s-9,12-9,12Z" transform="translate(-157.777 -83.398)"></path><polygon class="cls-24" points="248.244 485.583 248.223 495.602 239.223 495.602 239.223 479.602 248.244 485.583"></polygon><polygon class="cls-24" points="221.244 498.583 221.223 508.602 212.223 508.602 212.223 492.602 221.244 498.583"></polygon><path class="cls-25" d="M395,394s20-46,26-50,9,2,9,6-11,47-27,52S395,394,395,394Z" transform="translate(-157.777 -83.398)"></path><path class="cls-26" d="M418.037,475.583A124.278,124.278,0,0,1,407,522l-1,48s-1,8-11,4l-3-18-11,29s-13,2-14-5,6-39,14-48,7-19,7-23-17.434-26.881-8.217-46.44C379.783,462.56,401.074,477.165,418.037,475.583Z" transform="translate(-157.777 -83.398)"></path><path class="cls-25" d="M395,394s-17,0-17,14,5,33,4,40-4,6-3,11a73.473,73.473,0,0,0,2,8s11,20,37,9c0,0,3-34,4-38s3-5,5-4,22.921,10.059,27,7c8-6,21-29,21-33s-7-5-8-4-13,16-18,19-20-7-26-11S395,394,395,394Z" transform="translate(-157.777 -83.398)"></path><path class="cls-27" d="M407,408s-8.79.427-12.895-4.786L401,390l7,8Z" transform="translate(-157.777 -83.398)"></path><path class="cls-24" d="M406,372s6,11,7,16c.844,4.218,1.677,10.6-5.282,10.382a19.232,19.232,0,0,1-4.725-.86C391,394,406,372,406,372Z" transform="translate(-157.777 -83.398)"></path><path class="cls-26" d="M404,367s-20-2-22,11,5,20,10,24,11,0,11-4-1-8,0-8,1,2,2,1,1-2,0-4-1-11,1-15S404,367,404,367Z" transform="translate(-157.777 -83.398)"></path><path class="cls-26" d="M379.021,585.264S380,586,385,587s13-3,14,2,0,6,0,6-23,10-28,8-6-15.3-1-16.152C370,586.848,374.042,592.529,379.021,585.264Z" transform="translate(-157.777 -83.398)"></path><path class="cls-26" d="M397,577.913S404,582,406,573c0,0,5,1,9-1s4-5,9-3c3.382,1.353,2.189,4.993,1.063,7.207a7.52,7.52,0,0,1-2.3,2.688L406,591s-7,2-9-5Z" transform="translate(-157.777 -83.398)"></path></g></svg>